<?xml version="1.0" encoding="UTF-8" standalone="no"?><!DOCTYPE svg PUBLIC "-//W3C//DTD SVG 1.1//EN" "http://www.w3.org/Graphics/SVG/1.1/DTD/svg11.dtd"><svg width="100%" height="100%" viewBox="0 0 813 155" version="1.1" xmlns="http://www.w3.org/2000/svg" xmlns:xlink="http://www.w3.org/1999/xlink" xml:space="preserve" xmlns:serif="http://www.serif.com/" style="fill-rule:evenodd;clip-rule:evenodd;stroke-linejoin:round;stroke-miterlimit:2;"><g><rect x="233.625" y="9.208" width="6.25" height="141.167"/><path d="M704.542,45.833c0.541,1.492 1.583,2.746 2.958,3.542c1.767,0.942 3.75,1.388 5.75,1.292c1.887,0.032 3.765,-0.278 5.542,-0.917c1.805,-0.707 3.524,-1.615 5.125,-2.708c1.441,-0.908 2.758,-2.001 3.916,-3.25c1.384,-1.827 2.429,-3.888 3.084,-6.084c0.872,-2.563 1.322,-5.251 1.333,-7.958c0.019,-1.309 -0.15,-2.614 -0.5,-3.875c-0.315,-1.119 -0.87,-2.157 -1.625,-3.042c-0.908,-0.946 -2.04,-1.649 -3.292,-2.041c-1.538,-0.545 -3.16,-0.813 -4.791,-0.792c-2.034,-0.007 -4.049,0.404 -5.917,1.208c-1.834,0.786 -3.557,1.808 -5.125,3.042c-1.181,0.873 -2.27,1.864 -3.25,2.958c-1.264,1.776 -2.196,3.767 -2.75,5.875c-0.811,2.547 -1.233,5.202 -1.25,7.875c-0.013,1.675 0.27,3.34 0.833,4.917l-0.041,-0.042Zm7.75,-14.458c0.483,-2.511 1.538,-4.878 3.083,-6.917c1.065,-1.174 2.581,-1.842 4.167,-1.833c1.475,-0.055 2.9,0.558 3.875,1.667c1.125,1.554 1.662,3.458 1.5,5.375c-0.03,3.112 -0.464,6.208 -1.292,9.208c-0.442,1.795 -1.1,3.53 -1.958,5.167c-0.554,1.074 -1.353,2.002 -2.334,2.708c-0.894,0.57 -1.939,0.86 -3,0.833c-1.564,0.131 -3.104,-0.469 -4.166,-1.625c-1.074,-1.576 -1.574,-3.474 -1.417,-5.375c0.054,-3.143 0.516,-6.267 1.375,-9.291l0.167,0.083Zm28.041,-7.167l4.167,0l-4.417,22.792c-0.65,4.224 -1.583,8.4 -2.791,12.5c-0.233,0.787 -0.68,1.494 -1.292,2.042c-0.462,0.369 -1.034,0.574 -1.625,0.583c-0.613,0.003 -1.207,-0.219 -1.667,-0.625c-0.604,-0.586 -1.073,-1.297 -1.375,-2.083l-0.958,-0c-0.208,1.083 -0.458,2.125 -0.75,3.041c-0.292,0.917 -0.708,2.125 -1.25,3.667c0.629,0.292 1.308,0.475 2,0.542c1.054,-0.025 2.083,-0.313 3,-0.834c2.234,-1.261 4.212,-2.928 5.833,-4.916c1.968,-2.289 3.532,-4.895 4.625,-7.709c1.667,-4.666 3.059,-9.42 4.167,-14.25l3.208,-14.75l7.792,0c0.23,-1.08 0.55,-2.14 0.958,-3.166l-0.291,-0.5c-0.98,0.152 -1.968,0.249 -2.959,0.291c-2.195,0.138 -3.583,0.138 -4.166,0l-0.5,0c0.463,-2.736 1.061,-5.447 1.791,-8.125c0.196,-0.778 0.476,-1.532 0.834,-2.25c0.266,-0.481 0.654,-0.883 1.125,-1.166c0.438,-0.271 0.943,-0.415 1.458,-0.417c0.797,0.047 1.563,0.322 2.208,0.792c1,0.733 1.85,1.65 2.5,2.708l0.917,0c0.383,-2.635 0.954,-5.238 1.708,-7.792c-0.795,-0.318 -1.643,-0.487 -2.5,-0.5c-0.979,-0.036 -1.955,0.12 -2.875,0.459c-1.461,0.818 -2.854,1.751 -4.166,2.791c-2.071,1.486 -4.047,3.101 -5.917,4.834c-1.005,0.902 -1.863,1.957 -2.542,3.125c-0.499,1.148 -0.863,2.35 -1.083,3.583c0,0.792 -0.292,1.292 -0.417,1.625c-1.067,0.47 -2.167,0.86 -3.291,1.167c-1.334,0.387 -2.334,0.708 -3,0.958l-0.292,1.542l1.833,-0l0,0.041Zm-423.375,68.709l-5.541,-0c0.05,2.381 -0.187,4.759 -0.709,7.083c-0.125,0.661 -0.582,1.213 -1.208,1.458c-3.385,0.684 -6.843,0.936 -10.292,0.75c-1.887,0 -5.512,-0.154 -10.875,-0.458l0,-8.667c0,-10.916 0.238,-18.458 0.709,-22.625l6.625,-0.291l5.958,-0c3.237,-0.04 6.47,0.197 9.667,0.708c1.818,0.195 3.592,0.688 5.25,1.458c0.264,0.131 0.471,0.353 0.583,0.625c0.263,1.092 0.392,2.209 0.375,3.334c0.25,3.387 0.375,5.583 0.375,6.583l5.125,0c0,-2.779 0.196,-6.012 0.583,-9.708c0.388,-3.696 0.792,-6.75 1.209,-9.167l-0.584,-0.875c-4.013,-0.432 -8.047,-0.64 -12.083,-0.625l-30.333,0.583l-22.25,-0.583l-0,5.417c2.5,0.096 4.987,0.333 7.458,0.708c0.638,0.1 1.246,0.325 1.792,0.667c0.294,0.281 0.497,0.644 0.583,1.041c0.486,2.259 0.723,4.565 0.708,6.875c0.388,11.113 0.584,17 0.584,17.667l-0,25.958c-0,2.221 -0.113,5.888 -0.334,11c-0.22,5.113 -0.387,8.155 -0.5,9.125c-0.045,1.149 -0.344,2.273 -0.875,3.292c-0.238,0.33 -0.573,0.578 -0.958,0.708c-2.783,0.573 -5.617,0.867 -8.458,0.875l-0,5.209c7.75,-0.304 13.416,-0.459 17,-0.459l24.666,0.334l0,-5.084c-3.325,-0.119 -6.639,-0.467 -9.916,-1.041c-0.634,-0.176 -1.191,-0.557 -1.584,-1.084c-0.688,-2.254 -1.026,-4.601 -1,-6.958c-0.25,-4 -0.375,-10.946 -0.375,-20.833l0,-7.125l5.042,-0c4.917,-0.109 9.833,0.166 14.708,0.833c0.886,0.069 1.703,0.508 2.25,1.208c0.868,3.088 1.234,6.296 1.084,9.5l5.541,0l0,-27.416Zm35.084,57.416c2.779,0 7.612,0.084 14.5,0.25l14.833,0.334c5.388,-0 9.363,-0.113 11.917,-0.334c1.264,-0.083 2.519,-0.278 3.75,-0.583c-0,-0.804 0.196,-3.196 0.583,-7.167l1.583,-12.75l0,-2.083l-5.125,0c-0.804,4.054 -1.625,7.696 -2.458,10.917c-0.182,0.849 -0.552,1.646 -1.083,2.333c-0.96,0.487 -2.01,0.77 -3.084,0.833c-5.519,0.797 -11.09,1.173 -16.666,1.125c-2.113,0 -6.071,-0.154 -11.875,-0.458l-0,-46.833c-0,-7.054 0.096,-12.904 0.291,-17.542c-0.089,-2.616 0.022,-5.235 0.334,-7.833c0.165,-0.527 0.522,-0.973 1,-1.25c2.828,-0.82 5.765,-1.199 8.708,-1.125l0,-5.667c-6.862,0.304 -14.112,0.458 -21.75,0.458c-6.862,0 -12.958,-0.154 -18.292,-0.458l0,5.542c3.271,-0.146 6.541,0.277 9.667,1.25c0.454,0.235 0.798,0.639 0.958,1.125c0.625,4.5 0.892,9.041 0.792,13.583l0,24.625c0,9.054 -0.083,16.804 -0.25,23.25c-0.167,6.446 -0.362,10.196 -0.583,11.25c-0.035,0.257 -0.135,0.501 -0.292,0.708c-0.491,0.515 -1.069,0.938 -1.708,1.25c-1.475,0.916 -3.006,1.737 -4.584,2.459l0,3.25c8.334,-0.388 14.596,-0.584 18.792,-0.584l0.042,0.125Zm54.416,-17.5c3.705,6.534 9.278,11.817 16,15.167c7.604,3.619 15.957,5.39 24.375,5.167c7.976,0.161 15.906,-1.255 23.334,-4.167c4.979,-2.116 9.495,-5.188 13.291,-9.042c3.843,-3.835 6.863,-8.415 8.875,-13.458c2.797,-6.995 4.212,-14.467 4.167,-22c0,-4.324 -0.517,-8.632 -1.542,-12.833c-0.881,-3.734 -2.284,-7.325 -4.166,-10.667c-4.683,-7.722 -11.878,-13.608 -20.375,-16.667c-6.718,-2.219 -13.759,-3.304 -20.834,-3.208c-7.232,-0.073 -14.427,1.054 -21.291,3.333c-10.936,3.917 -19.711,12.297 -24.125,23.042c-2.457,6.419 -3.645,13.254 -3.5,20.125c-0.313,8.698 1.686,17.325 5.791,25l0,0.208Zm16.667,-47.458c1.628,-5.192 4.943,-9.695 9.417,-12.792c4.685,-2.928 10.145,-4.381 15.666,-4.166c4.478,-0.201 8.936,0.73 12.959,2.708c3.339,1.958 6.189,4.652 8.333,7.875c2.556,3.81 4.418,8.042 5.5,12.5c1.329,5.284 1.974,10.718 1.917,16.167c0.196,7.462 -1.006,14.896 -3.542,21.916c-1.754,5.163 -5.15,9.613 -9.667,12.667c-4.292,2.556 -9.212,3.869 -14.208,3.792c-5.255,0.07 -10.421,-1.377 -14.875,-4.167c-4.761,-3.373 -8.37,-8.131 -10.333,-13.625c-2.976,-7.772 -4.392,-16.055 -4.167,-24.375c-0.079,-6.355 0.907,-12.679 2.917,-18.708l0.083,0.208Zm82.25,-16.208c0.409,0.259 0.729,0.637 0.917,1.083c0.62,3.112 0.872,6.287 0.75,9.458l0.333,13.334l0,23.416l-0.5,18.417c-0.05,2.497 -0.258,4.988 -0.625,7.458c-0.048,0.617 -0.234,1.214 -0.542,1.75c-0.281,0.324 -0.662,0.544 -1.083,0.625c-2.752,0.481 -5.54,0.718 -8.333,0.709l-0,5.541c5.554,-0.304 11.625,-0.458 18.208,-0.458c7.363,0 14.625,0.154 21.792,0.458l-0,-5.583c-2.45,0.018 -4.899,-0.107 -7.334,-0.375c-0.649,-0.098 -1.273,-0.324 -1.833,-0.667c-0.348,-0.233 -0.634,-0.548 -0.833,-0.916c-0.474,-1.482 -0.713,-3.028 -0.709,-4.584c0,-1.166 -0.125,-6.083 -0.375,-14.75l0,-20.041c0,-4 0.125,-11.946 0.375,-23.834c0,-5.304 0.125,-8.721 0.375,-10.25c1.983,-0.336 3.99,-0.503 6,-0.5c3.183,-0.152 6.371,0.171 9.459,0.959c2.783,1.052 5.182,2.927 6.875,5.375c1.941,2.841 2.916,6.229 2.791,9.666c0.045,3.633 -0.876,7.214 -2.666,10.375c-1.445,2.764 -3.718,5.008 -6.5,6.417c-3.643,1.361 -7.544,1.888 -11.417,1.542l-0.708,2.083c1.508,1.183 2.829,2.587 3.916,4.167c2.78,3.666 6.055,8.695 9.834,15.083l13.5,22.25c0.654,1.125 1.158,2.329 1.5,3.583c3.333,-0.166 6.679,-0.25 10.041,-0.25c2.78,0 7.459,0.084 14.042,0.25l0,-5.583c-1.407,0.069 -2.816,-0.1 -4.167,-0.5c-0.788,-0.373 -1.496,-0.896 -2.083,-1.542c-0.721,-0.75 -2.654,-3.208 -5.792,-7.375l-4.166,-6.25l-9.792,-14.583l-0.708,-1.208c-0.25,-0.417 -1,-1.584 -2.375,-3.584c-1.375,-2 -2.542,-3.875 -3.584,-5.75c5.706,-1.849 10.766,-5.29 14.584,-9.916c3.09,-3.963 4.764,-8.85 4.75,-13.875c0.12,-3.926 -1.1,-7.777 -3.459,-10.917c-2.064,-2.821 -4.989,-4.898 -8.333,-5.917c-4.862,-1.114 -9.848,-1.59 -14.833,-1.416c-3.417,-0 -7.721,0.125 -12.917,0.375c-3.167,0.195 -6.946,0.291 -11.333,0.291l-12,0l-10.084,-0.291l0,5c3.125,0.009 6.235,0.429 9.25,1.25l-0.208,-0Zm100.625,-6.084c-6.862,0 -12.946,-0.154 -18.25,-0.458l0,5.542c2.675,0.02 5.347,0.2 8,0.541c0.555,0.097 1.073,0.342 1.5,0.709c0.312,0.356 0.528,0.786 0.625,1.25c0.458,3.329 0.708,6.683 0.75,10.041l0,42.542c0,4.304 -0.167,8.971 -0.5,14c-0.208,3.458 -0.375,5.417 -0.5,5.917c-0.094,0.382 -0.297,0.73 -0.583,1c-0.526,0.388 -1.143,0.632 -1.792,0.708c-0.667,0 -3.196,0.154 -7.583,0.458l-0,5.542c6.036,-0.325 12.08,-0.477 18.125,-0.458c7.804,-0 15.125,0.154 21.958,0.458l0,-5.5c-2.52,0.02 -5.039,-0.12 -7.542,-0.417c-0.685,-0.108 -1.339,-0.364 -1.916,-0.75c-0.435,-0.349 -0.743,-0.833 -0.875,-1.375c-0.546,-2.742 -0.756,-5.54 -0.625,-8.333l-0,-37.083c-0,-0.804 0.083,-6.363 0.25,-16.667l-0,-6.208c0.009,-1.412 0.22,-2.815 0.625,-4.167c0.123,-0.412 0.37,-0.776 0.708,-1.042c0.513,-0.354 1.095,-0.595 1.708,-0.708c2.53,-0.31 5.077,-0.463 7.625,-0.458l0,-5.667c-6.862,0.304 -14.137,0.458 -21.833,0.458l0.125,0.125Zm48.792,87.5l18.708,0.459c7.349,0.158 14.68,-0.783 21.75,-2.792c6.1,-1.941 11.761,-5.055 16.667,-9.167c5.182,-4.297 9.327,-9.71 12.125,-15.833c3.034,-6.755 4.542,-14.096 4.416,-21.5c0.067,-5.936 -0.935,-11.836 -2.958,-17.417c-1.217,-3.221 -2.979,-6.209 -5.208,-8.833c-2.369,-2.804 -5.185,-5.197 -8.334,-7.083c-3.636,-2.047 -7.596,-3.456 -11.708,-4.167c-5.901,-1.027 -11.886,-1.487 -17.875,-1.375c-3.25,-0 -7.554,0.071 -12.917,0.208c-7.445,0.25 -12.512,0.375 -15.208,0.375l-22.708,-0.958l-0,5.083c4.554,0.584 7.196,0.959 7.916,1.125c0.587,0.099 1.136,0.358 1.584,0.75c0.232,0.25 0.403,0.549 0.5,0.875c0.604,3.763 0.883,7.567 0.833,11.375c0.221,10.721 0.333,18.863 0.333,24.417l0,10.542c0,12.666 -0.237,21.821 -0.708,27.458c-1.333,1.013 -2.725,1.942 -4.167,2.792l-1.75,1l0,3.041l19.084,-0.458l-0.375,0.083Zm5.458,-32.125l0,-14.583c0,-16.5 0.221,-27.721 0.667,-33.667c3.545,-0.531 7.123,-0.809 10.708,-0.833c6.509,-0.28 13.022,0.479 19.292,2.25c4.121,1.428 7.769,3.966 10.541,7.333c2.818,3.442 4.864,7.45 6,11.75c1.227,4.537 1.844,9.217 1.834,13.917c0.036,4.962 -0.581,9.907 -1.834,14.708c-1.047,4.173 -2.779,8.144 -5.125,11.75c-1.834,2.885 -4.178,5.412 -6.916,7.459c-2.54,1.743 -5.358,3.039 -8.334,3.833c-4.859,1.237 -9.861,1.826 -14.875,1.75c-3.757,-0.023 -7.506,-0.358 -11.208,-1c-0.446,-4 -0.667,-12.25 -0.667,-24.75l-0.083,0.083Zm71.542,32.125l14.541,0.459l0,-5.209c-3.042,0.135 -6.084,-0.246 -9,-1.125c-0.69,-0.476 -1.073,-1.289 -1,-2.125c0.617,-3.708 1.667,-7.329 3.125,-10.791l2.75,-7.542l32.542,0l5.625,13.667c0.771,1.629 1.263,3.375 1.458,5.166c0.06,0.733 -0.316,1.435 -0.958,1.792c-2.895,0.676 -5.861,0.998 -8.833,0.958l-0,5.209l22.125,-0.459l17.541,0.459l0,-5.209l-2.791,-0.291c-1.234,-0.037 -2.462,-0.191 -3.667,-0.459c-0.476,-0.161 -0.916,-0.416 -1.292,-0.75c-0.49,-0.47 -0.899,-1.019 -1.208,-1.625l-2.542,-5.791l-3.916,-8.625l-28,-66.042l-9,0l-5.542,14.333l-16.458,40.625c-2.079,5.161 -4.176,10.314 -6.292,15.459c-1.373,3.215 -2.762,6.423 -4.167,9.625c-0.367,0.698 -0.845,1.331 -1.416,1.875c-0.488,0.406 -1.056,0.704 -1.667,0.875c-2.012,0.354 -4.042,0.575 -6.083,0.666l-0,5.209l14.458,-0.459l-0.333,0.125Zm26.5,-66.416l13.5,32.5l-26.459,-0l13,-32.625l-0.041,0.125Zm-495.459,-72.459c0.361,0.176 0.664,0.451 0.875,0.792c0.209,0.546 0.321,1.125 0.334,1.708l-0,23.584c0.343,2.424 1.595,4.629 3.5,6.166c1.237,0.973 2.652,1.695 4.166,2.125c2.432,0.737 4.96,1.102 7.5,1.084c2.039,0.026 4.072,-0.226 6.042,-0.75c1.64,-0.442 3.181,-1.192 4.542,-2.209c1.243,-0.891 2.292,-2.025 3.083,-3.333c0.717,-1.29 1.183,-2.704 1.375,-4.167c0.221,-1.629 0.333,-3.272 0.333,-4.916l0,-13.875c0.027,-1.814 0.18,-3.624 0.459,-5.417c0.078,-0.31 0.253,-0.588 0.5,-0.792c0.985,-0.36 2.037,-0.502 3.083,-0.416l0,-2.125l-5.75,0.166l-6.458,0l-0,2c1.286,-0.048 2.57,0.135 3.791,0.542c0.278,0.125 0.5,0.348 0.625,0.625c0.305,1.367 0.43,2.767 0.375,4.167l0,13.75c0.175,2.59 -0.136,5.19 -0.916,7.666c-0.672,1.386 -1.767,2.524 -3.125,3.25c-1.817,0.921 -3.842,1.352 -5.875,1.25c-1.739,0.042 -3.469,-0.269 -5.084,-0.916c-1.24,-0.509 -2.31,-1.362 -3.083,-2.459c-0.762,-1.26 -1.193,-2.694 -1.25,-4.166l0,-15.042c-0.146,-2.417 -0.09,-4.842 0.167,-7.25c0.04,-0.369 0.238,-0.703 0.541,-0.917c1.154,-0.443 2.395,-0.614 3.625,-0.5l0,-2.166l-4.666,-0l-3.667,0.166l-8.333,-0.166l-0,2.166l3.458,0.375l-0.167,0Zm47.042,34.459l12.708,-0l0,-2.25l-0.541,-0c-0.837,-0.025 -1.671,-0.094 -2.5,-0.209c-0.312,-0.021 -0.613,-0.121 -0.875,-0.291c-0.172,-0.127 -0.302,-0.3 -0.375,-0.5c-0.224,-1.238 -0.336,-2.493 -0.334,-3.75l0,-21.667c10.446,12.75 18.513,22.304 24.209,28.667l4.541,0.666l0.334,-0.208c-0.25,-2.5 -0.375,-9.613 -0.375,-21.333l-0,-6.959c-0.086,-2.035 0.039,-4.074 0.375,-6.083c0.038,-0.172 0.143,-0.322 0.291,-0.417c1.25,-0.391 2.567,-0.55 3.875,-0.458l0,-2.208l-12.5,-0l0,2.208c1.413,-0.125 2.834,0.063 4.167,0.542c0.31,0.357 0.474,0.819 0.458,1.291c0.221,1.667 0.334,7.221 0.334,16.667l-0,6.125c-2.446,-2.529 -5.529,-6.012 -9.25,-10.458c-4.569,-5.356 -9.015,-10.816 -13.334,-16.375l-11.208,-0l0,2.208c1.129,0.042 2.258,0.15 3.375,0.333c0.311,0.059 0.6,0.204 0.833,0.417c0.195,0.256 0.324,0.557 0.375,0.875c0.067,0.833 0.067,1.667 0,2.5l0,21.75c-0.137,2.583 -0.262,4.208 -0.375,4.875c-0.033,0.354 -0.147,0.696 -0.333,1c-0.135,0.153 -0.307,0.268 -0.5,0.333c-1.187,0.171 -2.384,0.269 -3.583,0.292l-0,2.25l0.208,0.167Zm60.958,-36.834l-7.625,0l0,2.167c1.113,0 2.23,0.071 3.334,0.208c0.231,0.039 0.447,0.14 0.625,0.292c0.13,0.155 0.217,0.342 0.25,0.542c0.237,1.362 0.391,2.741 0.458,4.125l0,17.916c0,1.805 -0.083,3.763 -0.25,5.875l0,2.5c-0.04,0.161 -0.127,0.306 -0.25,0.417c-0.221,0.16 -0.479,0.261 -0.75,0.292l-3.167,-0l0,2.333l16.792,0l0,-2.167c-1.054,0.067 -2.112,0.067 -3.167,0c-0.329,-0.089 -0.63,-0.261 -0.875,-0.5c-0.185,-0.148 -0.317,-0.353 -0.375,-0.583c-0.229,-1.166 -0.313,-2.355 -0.25,-3.542l0,-25.041c-0.005,-0.563 0.065,-1.123 0.209,-1.667c0.069,-0.214 0.218,-0.393 0.416,-0.5c0.213,-0.146 0.455,-0.245 0.709,-0.292c1.068,-0.066 2.14,-0.066 3.208,0l0,-2.541l-9.167,-0l-0.125,0.166Zm42.25,37c1.084,-3 3.138,-8.137 6.167,-15.416l3.583,-8.334l1.875,-4.375c0.726,-2.125 1.735,-4.144 3,-6c0.961,-0.354 1.976,-0.538 3,-0.541l0,-2.5l-12.416,-0l-0,2.333l3.875,0c0.153,0.074 0.283,0.19 0.375,0.333c0.058,0.219 0.058,0.449 -0,0.667c0.019,0.208 0.019,0.417 -0,0.625c-0.167,0.721 -0.654,2.113 -1.459,4.167c-0.61,1.672 -1.235,3.338 -1.875,5l-5.875,14.541l-6.666,-16l-0,-0.5l-1.292,-2.541c-0.771,-1.61 -1.358,-3.301 -1.75,-5.042c-0.021,-0.241 0.054,-0.481 0.208,-0.667c0.221,-0.201 0.497,-0.331 0.792,-0.375c1.059,-0.188 2.133,-0.272 3.208,-0.25l0,-2.291l-17.208,-0l0,2.333c1.117,-0.063 2.235,0.093 3.292,0.458c0.679,0.655 1.204,1.455 1.541,2.334c0.667,1.333 2.471,5.5 5.417,12.5l3.75,8.958l4.167,10.542l4.166,-0l0.125,0.041Zm38.125,-0.5l12.834,0c1.596,0.084 3.196,0.084 4.791,0l0.334,-0.333c0.042,-2.883 0.236,-5.762 0.583,-8.625l-1.875,0c-0.192,1.623 -0.527,3.227 -1,4.792c-0.062,0.183 -0.179,0.342 -0.333,0.458c-0.947,0.354 -1.948,0.538 -2.959,0.542l-10.291,-0l-0,-14.125c1.388,-0.076 2.778,-0.076 4.166,-0c1.575,-0.022 3.149,0.076 4.709,0.291c0.458,0.042 0.866,0.292 1.125,0.667c0.396,1.221 0.537,2.512 0.416,3.792l2.125,-0l0,-11.584l-2.125,0c0.013,1.123 -0.113,2.242 -0.375,3.334c-0.06,0.217 -0.192,0.408 -0.375,0.541c-0.551,0.097 -1.115,0.097 -1.666,0l-7.917,0l0,-5.5c-0.019,-2.546 0.106,-5.092 0.375,-7.625l4.792,0c1.712,0.002 3.423,0.099 5.125,0.292c0.727,0.014 1.446,0.155 2.125,0.417c0.169,0.137 0.287,0.328 0.333,0.541c0.183,1.271 0.267,2.55 0.25,3.834l2.042,-0l0.25,-3.834l0.5,-3.833l-0,-0.333l-1.292,-0.375l-26.917,-0l0,2.25c1.292,-0.013 2.584,0.141 3.834,0.458c0.185,0.083 0.333,0.232 0.416,0.417c0.292,1.2 0.417,2.433 0.375,3.666l0,17.042c0,1.388 -0.07,3.596 -0.208,6.625c0,1.667 0,2.875 -0.25,3.583c-0.8,0.613 -1.667,1.125 -2.583,1.542l-0,1.417l8.666,-0.334Zm34.792,-34.083c0.17,0.109 0.302,0.27 0.375,0.458c0.283,1.371 0.396,2.771 0.333,4.167l0,15.292l-0.208,7.708c-0.015,1.046 -0.099,2.09 -0.25,3.125c-0.011,0.263 -0.082,0.519 -0.208,0.75c-0.122,0.13 -0.283,0.218 -0.459,0.25c-1.17,0.2 -2.355,0.298 -3.541,0.292l-0,2.333l16.75,0l-0,-2.292c-1.027,0.06 -2.057,0.06 -3.084,0c-0.267,-0.046 -0.521,-0.145 -0.75,-0.291c-0.139,-0.098 -0.253,-0.226 -0.333,-0.375c-0.194,-0.621 -0.292,-1.267 -0.292,-1.917l0,-28.708c0.826,-0.14 1.663,-0.209 2.5,-0.209c1.402,-0.08 2.809,0.06 4.167,0.417c1.167,0.442 2.167,1.225 2.875,2.25c0.833,1.225 1.246,2.688 1.167,4.167c-0.014,1.462 -0.402,2.896 -1.125,4.166c-0.595,1.166 -1.543,2.114 -2.709,2.709c-1.527,0.579 -3.164,0.807 -4.791,0.666l-0.292,0.875c0.625,0.496 1.175,1.084 1.625,1.75c1.138,1.53 2.529,3.638 4.167,6.334l5.666,9.333c0.271,0.471 0.48,0.975 0.625,1.5l10.084,0l-0,-2.667c-0.563,0.022 -1.126,-0.049 -1.667,-0.208c-0.334,-0.16 -0.632,-0.387 -0.875,-0.667c-0.304,-0.304 -1.112,-1.333 -2.417,-3.083l-1.791,-2.625l-4.167,-6.125l-0.292,-0.5l-0.833,-1.458c-0.542,-0.834 -1.083,-1.625 -1.5,-2.417c2.383,-0.781 4.494,-2.227 6.083,-4.167c1.305,-1.666 2.009,-3.721 2,-5.833c0.05,-1.649 -0.465,-3.266 -1.458,-4.583c-0.869,-1.177 -2.098,-2.04 -3.5,-2.459c-2.035,-0.464 -4.122,-0.66 -6.208,-0.583l-19.375,-0l-0,2.208c1.308,0.009 2.612,0.192 3.875,0.542l-0.167,-0.125Zm68.292,2.625c0.117,-1.134 0.298,-2.261 0.541,-3.375l-0.208,-0.625c-1.456,-0.689 -2.997,-1.179 -4.583,-1.458c-1.786,-0.335 -3.6,-0.503 -5.417,-0.5c-1.766,-0.006 -3.528,0.19 -5.25,0.583c-1.635,0.367 -3.188,1.031 -4.583,1.958c-1.418,0.981 -2.554,2.318 -3.292,3.875c-0.838,1.697 -1.266,3.567 -1.25,5.459c-0.005,1.351 0.235,2.692 0.708,3.958c0.448,1.187 1.161,2.255 2.084,3.125c1.05,0.942 2.308,1.625 3.666,2c1,0.304 3.096,0.792 6.292,1.458c1.61,0.312 3.177,0.816 4.667,1.5c0.833,0.425 1.516,1.092 1.958,1.917c0.442,0.892 0.654,1.879 0.625,2.875c0.023,1.237 -0.279,2.458 -0.875,3.542c-0.663,1.111 -1.674,1.975 -2.875,2.458c-1.42,0.611 -2.955,0.909 -4.5,0.875c-1.852,0.019 -3.682,-0.41 -5.333,-1.25c-1.395,-0.623 -2.591,-1.618 -3.459,-2.875c-0.211,-1.574 -0.308,-3.162 -0.291,-4.75l-2.125,0c0.088,3.078 -0.192,6.155 -0.834,9.167c1.781,0.893 3.653,1.592 5.584,2.083c1.899,0.433 3.843,0.643 5.791,0.625c2.598,0.07 5.186,-0.354 7.625,-1.25c1.417,-0.575 2.721,-1.375 3.875,-2.375c1.194,-0.99 2.197,-2.19 2.959,-3.542c0.971,-1.833 1.458,-3.883 1.416,-5.958c0.017,-1.172 -0.152,-2.339 -0.5,-3.458c-0.277,-0.93 -0.714,-1.804 -1.291,-2.584c-0.573,-0.725 -1.281,-1.333 -2.084,-1.791c-1.086,-0.601 -2.25,-1.049 -3.458,-1.334l-3.542,-0.666l-4.166,-0.792c-1.064,-0.245 -2.087,-0.638 -3.042,-1.167c-0.679,-0.407 -1.229,-1 -1.583,-1.708c-0.408,-0.888 -0.607,-1.857 -0.584,-2.833c0.023,-1.605 0.738,-3.125 1.959,-4.167c1.556,-1.304 3.556,-1.961 5.583,-1.833c1.562,-0.018 3.109,0.294 4.542,0.916c1.108,0.417 2.083,1.125 2.833,2.042c0.167,1.383 0.25,2.775 0.25,4.167l2.208,-0c0,-1.792 0,-3.25 0.25,-4.167l-0.291,-0.125Zm23.5,-5.125l-7.625,0l-0,2.25c1.114,0.003 2.227,0.072 3.333,0.208c0.231,0.039 0.447,0.14 0.625,0.292c0.131,0.155 0.217,0.342 0.25,0.542c0.198,1.38 0.31,2.772 0.333,4.166l0,17.875c0,1.805 -0.07,3.763 -0.208,5.875l0,2.5c-0.04,0.161 -0.127,0.306 -0.25,0.417c-0.221,0.16 -0.479,0.261 -0.75,0.292l-3.167,-0l0,2.333l16.792,0l0,-2.167c-1.054,0.067 -2.112,0.067 -3.167,0c-0.285,-0.052 -0.555,-0.166 -0.791,-0.333c-0.188,-0.146 -0.321,-0.352 -0.375,-0.583c-0.23,-1.166 -0.314,-2.356 -0.25,-3.542l-0,-25.208c0.035,-0.568 0.148,-1.129 0.333,-1.667c0.056,-0.164 0.157,-0.308 0.292,-0.417c0.213,-0.145 0.454,-0.244 0.708,-0.291c1.055,-0.065 2.112,-0.065 3.167,-0l-0,-2.625l-9.167,-0l-0.083,0.083Zm36.833,36.583c2.363,0 5.25,0.071 8.667,0.209l-0,-2.042c-1.28,0.042 -2.559,-0.112 -3.792,-0.458c-0.392,-0.208 -0.68,-0.571 -0.792,-1c-0.278,-2.281 -0.376,-4.58 -0.291,-6.875l-0,-23.084l3.791,0c2.03,0 3.763,0.071 5.209,0.209c0.274,-0.066 0.559,-0.066 0.833,-0c0.199,0.343 0.313,0.729 0.333,1.125c0.196,1.296 0.309,2.604 0.334,3.916l2.166,0l0,-5.791c0.048,-0.949 0.145,-1.895 0.292,-2.834l-0.25,-0.25l-33.417,0l-0.25,0.25c0,0.888 0.084,1.721 0.25,2.5c0.167,0.78 0.167,2.821 0,6.125l2.167,0c0.029,-1.395 0.167,-2.791 0.417,-4.166c0.022,-0.331 0.137,-0.649 0.333,-0.917c0.313,-0.144 0.655,-0.215 1,-0.208l8.833,-0l0,23.083c0.085,2.282 -0.012,4.567 -0.291,6.833c-0.107,0.443 -0.394,0.821 -0.792,1.042c-1.237,0.325 -2.514,0.465 -3.792,0.417l0,2.166c3.25,-0.137 6.138,-0.208 8.667,-0.208l0.375,-0.042Zm43.333,-26.583c-1.143,-2.27 -2.423,-4.468 -3.833,-6.583c-0.591,-0.941 -1.275,-1.821 -2.042,-2.625c-0.706,-0.661 -1.489,-1.235 -2.333,-1.709l-2.917,0.709l-5.625,1.125l0,2.333c0.775,-0.103 1.559,-0.103 2.334,0c0.7,0.483 1.329,1.058 1.875,1.708c1.547,1.797 2.94,3.721 4.166,5.75c1.888,2.946 3.667,5.93 5.334,8.959c0.481,0.766 0.82,1.613 1,2.5l-0,10.166c0.013,0.543 -0.086,1.082 -0.292,1.584c-0.182,0.214 -0.432,0.361 -0.708,0.416c-1.175,0.157 -2.357,0.241 -3.542,0.25l0,2.334l17.167,-0l-0,-2.334c-1.171,0.025 -2.341,-0.044 -3.5,-0.208c-0.306,-0.064 -0.584,-0.225 -0.792,-0.458c-0.254,-0.58 -0.395,-1.202 -0.417,-1.834c-0.083,-1.625 -0.083,-3.25 0,-4.875l0,-4.541c-0.062,-0.666 -0.062,-1.335 0,-2c0.167,-0.696 0.417,-1.367 0.75,-2c0.584,-1.113 2.113,-3.613 4.584,-7.5c2.471,-3.888 4.821,-7.25 7.041,-10.084l0,-1.166l-4.166,-0c-0.25,0.5 -0.875,1.625 -1.834,3.291l-5,8.834l-3.333,5.375c-0.417,-0.917 -1.654,-3.363 -3.708,-7.334l-0.209,-0.083Z" style="fill:#004b93;fill-rule:nonzero;"/><g><path d="M150.875,126.583l0,-36.125l33.292,0l-0,-23.833l-33.292,0l0,-33.75l36.542,0l-0,13.083l24.125,0l-0,-36.708l-96.584,0l0,23.625l9.084,0l-0,93.708l-9.042,0l0,23.834l44.583,-0l0,-23.834l-8.708,0Zm-48.458,-29.541l-0,-64.167l8.916,0l0,-23.625l-44.625,0l0,23.625l8.709,0l-0,56.208c-0,23.584 -2.709,34.875 -19.625,34.875c-16.917,0 -19.667,-11.458 -19.667,-34.875l0,-56.208l8.625,0l0,-23.625l-44.75,0l0,23.625l8.875,0l0,64.167c0,14.041 0,25.5 6.625,35.833c7.375,11.667 20.833,19.125 40.25,19.125c34.417,0 46.667,-17.958 46.667,-54.958Zm131.208,-87.834l0,141.167l6.25,0l0,-141.167l-6.25,0Z"/><path d="M704.542,45.833c0.541,1.492 1.583,2.746 2.958,3.542c1.767,0.942 3.75,1.388 5.75,1.292c1.887,0.032 3.765,-0.278 5.542,-0.917c1.805,-0.707 3.524,-1.615 5.125,-2.708c1.441,-0.908 2.758,-2.001 3.916,-3.25c1.384,-1.827 2.429,-3.888 3.084,-6.084c0.872,-2.563 1.322,-5.251 1.333,-7.958c0.019,-1.309 -0.15,-2.614 -0.5,-3.875c-0.315,-1.119 -0.87,-2.157 -1.625,-3.042c-0.908,-0.946 -2.04,-1.649 -3.292,-2.041c-1.538,-0.545 -3.16,-0.813 -4.791,-0.792c-2.034,-0.007 -4.049,0.404 -5.917,1.208c-1.834,0.786 -3.557,1.808 -5.125,3.042c-1.181,0.873 -2.27,1.864 -3.25,2.958c-1.264,1.776 -2.196,3.767 -2.75,5.875c-0.811,2.547 -1.233,5.202 -1.25,7.875c-0.013,1.675 0.27,3.34 0.833,4.917l-0.041,-0.042Zm7.75,-14.458c0.483,-2.511 1.538,-4.878 3.083,-6.917c1.065,-1.174 2.581,-1.842 4.167,-1.833c1.475,-0.055 2.9,0.558 3.875,1.667c1.125,1.554 1.662,3.458 1.5,5.375c-0.03,3.112 -0.464,6.208 -1.292,9.208c-0.442,1.795 -1.1,3.53 -1.958,5.167c-0.554,1.074 -1.353,2.002 -2.334,2.708c-0.894,0.57 -1.939,0.86 -3,0.833c-1.564,0.131 -3.104,-0.469 -4.166,-1.625c-1.074,-1.576 -1.574,-3.474 -1.417,-5.375c0.054,-3.143 0.516,-6.267 1.375,-9.291l0.167,0.083Zm28.041,-7.167l4.167,0l-4.417,22.792c-0.65,4.224 -1.583,8.4 -2.791,12.5c-0.233,0.787 -0.68,1.494 -1.292,2.042c-0.462,0.369 -1.034,0.574 -1.625,0.583c-0.613,0.003 -1.207,-0.219 -1.667,-0.625c-0.604,-0.586 -1.073,-1.297 -1.375,-2.083l-0.958,-0c-0.208,1.083 -0.458,2.125 -0.75,3.041c-0.292,0.917 -0.708,2.125 -1.25,3.667c0.629,0.292 1.308,0.475 2,0.542c1.054,-0.025 2.083,-0.313 3,-0.834c2.234,-1.261 4.212,-2.928 5.833,-4.916c1.968,-2.289 3.532,-4.895 4.625,-7.709c1.667,-4.666 3.059,-9.42 4.167,-14.25l3.208,-14.75l7.792,0c0.23,-1.08 0.55,-2.14 0.958,-3.166l-0.291,-0.5c-0.98,0.152 -1.968,0.249 -2.959,0.291c-2.195,0.138 -3.583,0.138 -4.166,0l-0.5,0c0.463,-2.736 1.061,-5.447 1.791,-8.125c0.196,-0.778 0.476,-1.532 0.834,-2.25c0.266,-0.481 0.654,-0.883 1.125,-1.166c0.438,-0.271 0.943,-0.415 1.458,-0.417c0.797,0.047 1.563,0.322 2.208,0.792c1,0.733 1.85,1.65 2.5,2.708l0.917,0c0.383,-2.635 0.954,-5.238 1.708,-7.792c-0.795,-0.318 -1.643,-0.487 -2.5,-0.5c-0.979,-0.036 -1.955,0.12 -2.875,0.459c-1.461,0.818 -2.854,1.751 -4.166,2.791c-2.071,1.486 -4.047,3.101 -5.917,4.834c-1.005,0.902 -1.863,1.957 -2.542,3.125c-0.499,1.148 -0.863,2.35 -1.083,3.583c0,0.792 -0.292,1.292 -0.417,1.625c-1.067,0.47 -2.167,0.86 -3.291,1.167c-1.334,0.387 -2.334,0.708 -3,0.958l-0.292,1.542l1.833,-0l0,0.041Zm-423.375,68.709l-5.541,-0c0.05,2.381 -0.187,4.759 -0.709,7.083c-0.125,0.661 -0.582,1.213 -1.208,1.458c-3.385,0.684 -6.843,0.936 -10.292,0.75c-1.887,0 -5.512,-0.154 -10.875,-0.458l0,-8.667c0,-10.916 0.238,-18.458 0.709,-22.625l6.625,-0.291l5.958,-0c3.237,-0.04 6.47,0.197 9.667,0.708c1.818,0.195 3.592,0.688 5.25,1.458c0.264,0.131 0.471,0.353 0.583,0.625c0.263,1.092 0.392,2.209 0.375,3.334c0.25,3.387 0.375,5.583 0.375,6.583l5.125,0c0,-2.779 0.196,-6.012 0.583,-9.708c0.388,-3.696 0.792,-6.75 1.209,-9.167l-0.584,-0.875c-4.013,-0.432 -8.047,-0.64 -12.083,-0.625l-30.333,0.583l-22.25,-0.583l-0,5.417c2.5,0.096 4.987,0.333 7.458,0.708c0.638,0.1 1.246,0.325 1.792,0.667c0.294,0.281 0.497,0.644 0.583,1.041c0.486,2.259 0.723,4.565 0.708,6.875c0.388,11.113 0.584,17 0.584,17.667l-0,25.958c-0,2.221 -0.113,5.888 -0.334,11c-0.22,5.113 -0.387,8.155 -0.5,9.125c-0.045,1.149 -0.344,2.273 -0.875,3.292c-0.238,0.33 -0.573,0.578 -0.958,0.708c-2.783,0.573 -5.617,0.867 -8.458,0.875l-0,5.209c7.75,-0.304 13.416,-0.459 17,-0.459l24.666,0.334l0,-5.084c-3.325,-0.119 -6.639,-0.467 -9.916,-1.041c-0.634,-0.176 -1.191,-0.557 -1.584,-1.084c-0.688,-2.254 -1.026,-4.601 -1,-6.958c-0.25,-4 -0.375,-10.946 -0.375,-20.833l0,-7.125l5.042,-0c4.917,-0.109 9.833,0.166 14.708,0.833c0.886,0.069 1.703,0.508 2.25,1.208c0.868,3.088 1.234,6.296 1.084,9.5l5.541,0l0,-27.416Zm35.084,57.416c2.779,0 7.612,0.084 14.5,0.25l14.833,0.334c5.388,-0 9.363,-0.113 11.917,-0.334c1.264,-0.083 2.519,-0.278 3.75,-0.583c-0,-0.804 0.196,-3.196 0.583,-7.167l1.583,-12.75l0,-2.083l-5.125,0c-0.804,4.054 -1.625,7.696 -2.458,10.917c-0.182,0.849 -0.552,1.646 -1.083,2.333c-0.96,0.487 -2.01,0.77 -3.084,0.833c-5.519,0.797 -11.09,1.173 -16.666,1.125c-2.113,0 -6.071,-0.154 -11.875,-0.458l-0,-46.833c-0,-7.054 0.096,-12.904 0.291,-17.542c-0.089,-2.616 0.022,-5.235 0.334,-7.833c0.165,-0.527 0.522,-0.973 1,-1.25c2.828,-0.82 5.765,-1.199 8.708,-1.125l0,-5.667c-6.862,0.304 -14.112,0.458 -21.75,0.458c-6.862,0 -12.958,-0.154 -18.292,-0.458l0,5.542c3.271,-0.146 6.541,0.277 9.667,1.25c0.454,0.235 0.798,0.639 0.958,1.125c0.625,4.5 0.892,9.041 0.792,13.583l0,24.625c0,9.054 -0.083,16.804 -0.25,23.25c-0.167,6.446 -0.362,10.196 -0.583,11.25c-0.035,0.257 -0.135,0.501 -0.292,0.708c-0.491,0.515 -1.069,0.938 -1.708,1.25c-1.475,0.916 -3.006,1.737 -4.584,2.459l0,3.25c8.334,-0.388 14.596,-0.584 18.792,-0.584l0.042,0.125Zm54.416,-17.5c3.705,6.534 9.278,11.817 16,15.167c7.604,3.619 15.957,5.39 24.375,5.167c7.976,0.161 15.906,-1.255 23.334,-4.167c4.979,-2.116 9.495,-5.188 13.291,-9.042c3.843,-3.835 6.863,-8.415 8.875,-13.458c2.797,-6.995 4.212,-14.467 4.167,-22c0,-4.324 -0.517,-8.632 -1.542,-12.833c-0.881,-3.734 -2.284,-7.325 -4.166,-10.667c-4.683,-7.722 -11.878,-13.608 -20.375,-16.667c-6.718,-2.219 -13.759,-3.304 -20.834,-3.208c-7.232,-0.073 -14.427,1.054 -21.291,3.333c-10.936,3.917 -19.711,12.297 -24.125,23.042c-2.457,6.419 -3.645,13.254 -3.5,20.125c-0.313,8.698 1.686,17.325 5.791,25l0,0.208Zm16.667,-47.458c1.628,-5.192 4.943,-9.695 9.417,-12.792c4.685,-2.928 10.145,-4.381 15.666,-4.166c4.478,-0.201 8.936,0.73 12.959,2.708c3.339,1.958 6.189,4.652 8.333,7.875c2.556,3.81 4.418,8.042 5.5,12.5c1.329,5.284 1.974,10.718 1.917,16.167c0.196,7.462 -1.006,14.896 -3.542,21.916c-1.754,5.163 -5.15,9.613 -9.667,12.667c-4.292,2.556 -9.212,3.869 -14.208,3.792c-5.255,0.07 -10.421,-1.377 -14.875,-4.167c-4.761,-3.373 -8.37,-8.131 -10.333,-13.625c-2.976,-7.772 -4.392,-16.055 -4.167,-24.375c-0.079,-6.355 0.907,-12.679 2.917,-18.708l0.083,0.208Zm82.25,-16.208c0.409,0.259 0.729,0.637 0.917,1.083c0.62,3.112 0.872,6.287 0.75,9.458l0.333,13.334l0,23.416l-0.5,18.417c-0.05,2.497 -0.258,4.988 -0.625,7.458c-0.048,0.617 -0.234,1.214 -0.542,1.75c-0.281,0.324 -0.662,0.544 -1.083,0.625c-2.752,0.481 -5.54,0.718 -8.333,0.709l-0,5.541c5.554,-0.304 11.625,-0.458 18.208,-0.458c7.363,0 14.625,0.154 21.792,0.458l-0,-5.583c-2.45,0.018 -4.899,-0.107 -7.334,-0.375c-0.649,-0.098 -1.273,-0.324 -1.833,-0.667c-0.348,-0.233 -0.634,-0.548 -0.833,-0.916c-0.474,-1.482 -0.713,-3.028 -0.709,-4.584c0,-1.166 -0.125,-6.083 -0.375,-14.75l0,-20.041c0,-4 0.125,-11.946 0.375,-23.834c0,-5.304 0.125,-8.721 0.375,-10.25c1.983,-0.336 3.99,-0.503 6,-0.5c3.183,-0.152 6.371,0.171 9.459,0.959c2.783,1.052 5.182,2.927 6.875,5.375c1.941,2.841 2.916,6.229 2.791,9.666c0.045,3.633 -0.876,7.214 -2.666,10.375c-1.445,2.764 -3.718,5.008 -6.5,6.417c-3.643,1.361 -7.544,1.888 -11.417,1.542l-0.708,2.083c1.508,1.183 2.829,2.587 3.916,4.167c2.78,3.666 6.055,8.695 9.834,15.083l13.5,22.25c0.654,1.125 1.158,2.329 1.5,3.583c3.333,-0.166 6.679,-0.25 10.041,-0.25c2.78,0 7.459,0.084 14.042,0.25l0,-5.583c-1.407,0.069 -2.816,-0.1 -4.167,-0.5c-0.788,-0.373 -1.496,-0.896 -2.083,-1.542c-0.721,-0.75 -2.654,-3.208 -5.792,-7.375l-4.166,-6.25l-9.792,-14.583l-0.708,-1.208c-0.25,-0.417 -1,-1.584 -2.375,-3.584c-1.375,-2 -2.542,-3.875 -3.584,-5.75c5.706,-1.849 10.766,-5.29 14.584,-9.916c3.09,-3.963 4.764,-8.85 4.75,-13.875c0.12,-3.926 -1.1,-7.777 -3.459,-10.917c-2.064,-2.821 -4.989,-4.898 -8.333,-5.917c-4.862,-1.114 -9.848,-1.59 -14.833,-1.416c-3.417,-0 -7.721,0.125 -12.917,0.375c-3.167,0.195 -6.946,0.291 -11.333,0.291l-12,0l-10.084,-0.291l0,5c3.125,0.009 6.235,0.429 9.25,1.25l-0.208,-0Zm100.625,-6.084c-6.862,0 -12.946,-0.154 -18.25,-0.458l0,5.542c2.675,0.02 5.347,0.2 8,0.541c0.555,0.097 1.073,0.342 1.5,0.709c0.312,0.356 0.528,0.786 0.625,1.25c0.458,3.329 0.708,6.683 0.75,10.041l0,42.542c0,4.304 -0.167,8.971 -0.5,14c-0.208,3.458 -0.375,5.417 -0.5,5.917c-0.094,0.382 -0.297,0.73 -0.583,1c-0.526,0.388 -1.143,0.632 -1.792,0.708c-0.667,0 -3.196,0.154 -7.583,0.458l-0,5.542c6.036,-0.325 12.08,-0.477 18.125,-0.458c7.804,-0 15.125,0.154 21.958,0.458l0,-5.5c-2.52,0.02 -5.039,-0.12 -7.542,-0.417c-0.685,-0.108 -1.339,-0.364 -1.916,-0.75c-0.435,-0.349 -0.743,-0.833 -0.875,-1.375c-0.546,-2.742 -0.756,-5.54 -0.625,-8.333l-0,-37.083c-0,-0.804 0.083,-6.363 0.25,-16.667l-0,-6.208c0.009,-1.412 0.22,-2.815 0.625,-4.167c0.123,-0.412 0.37,-0.776 0.708,-1.042c0.513,-0.354 1.095,-0.595 1.708,-0.708c2.53,-0.31 5.077,-0.463 7.625,-0.458l0,-5.667c-6.862,0.304 -14.137,0.458 -21.833,0.458l0.125,0.125Zm48.792,87.5l18.708,0.459c7.349,0.158 14.68,-0.783 21.75,-2.792c6.1,-1.941 11.761,-5.055 16.667,-9.167c5.182,-4.297 9.327,-9.71 12.125,-15.833c3.034,-6.755 4.542,-14.096 4.416,-21.5c0.067,-5.936 -0.935,-11.836 -2.958,-17.417c-1.217,-3.221 -2.979,-6.209 -5.208,-8.833c-2.369,-2.804 -5.185,-5.197 -8.334,-7.083c-3.636,-2.047 -7.596,-3.456 -11.708,-4.167c-5.901,-1.027 -11.886,-1.487 -17.875,-1.375c-3.25,-0 -7.554,0.071 -12.917,0.208c-7.445,0.25 -12.512,0.375 -15.208,0.375l-22.708,-0.958l-0,5.083c4.554,0.584 7.196,0.959 7.916,1.125c0.587,0.099 1.136,0.358 1.584,0.75c0.232,0.25 0.403,0.549 0.5,0.875c0.604,3.763 0.883,7.567 0.833,11.375c0.221,10.721 0.333,18.863 0.333,24.417l0,10.542c0,12.666 -0.237,21.821 -0.708,27.458c-1.333,1.013 -2.725,1.942 -4.167,2.792l-1.75,1l0,3.041l19.084,-0.458l-0.375,0.083Zm5.458,-32.125l0,-14.583c0,-16.5 0.221,-27.721 0.667,-33.667c3.545,-0.531 7.123,-0.809 10.708,-0.833c6.509,-0.28 13.022,0.479 19.292,2.25c4.121,1.428 7.769,3.966 10.541,7.333c2.818,3.442 4.864,7.45 6,11.75c1.227,4.537 1.844,9.217 1.834,13.917c0.036,4.962 -0.581,9.907 -1.834,14.708c-1.047,4.173 -2.779,8.144 -5.125,11.75c-1.834,2.885 -4.178,5.412 -6.916,7.459c-2.54,1.743 -5.358,3.039 -8.334,3.833c-4.859,1.237 -9.861,1.826 -14.875,1.75c-3.757,-0.023 -7.506,-0.358 -11.208,-1c-0.446,-4 -0.667,-12.25 -0.667,-24.75l-0.083,0.083Zm71.542,32.125l14.541,0.459l0,-5.209c-3.042,0.135 -6.084,-0.246 -9,-1.125c-0.69,-0.476 -1.073,-1.289 -1,-2.125c0.617,-3.708 1.667,-7.329 3.125,-10.791l2.75,-7.542l32.542,0l5.625,13.667c0.771,1.629 1.263,3.375 1.458,5.166c0.06,0.733 -0.316,1.435 -0.958,1.792c-2.895,0.676 -5.861,0.998 -8.833,0.958l-0,5.209l22.125,-0.459l17.541,0.459l0,-5.209l-2.791,-0.291c-1.234,-0.037 -2.462,-0.191 -3.667,-0.459c-0.476,-0.161 -0.916,-0.416 -1.292,-0.75c-0.49,-0.47 -0.899,-1.019 -1.208,-1.625l-2.542,-5.791l-3.916,-8.625l-28,-66.042l-9,0l-5.542,14.333l-16.458,40.625c-2.079,5.161 -4.176,10.314 -6.292,15.459c-1.373,3.215 -2.762,6.423 -4.167,9.625c-0.367,0.698 -0.845,1.331 -1.416,1.875c-0.488,0.406 -1.056,0.704 -1.667,0.875c-2.012,0.354 -4.042,0.575 -6.083,0.666l-0,5.209l14.458,-0.459l-0.333,0.125Zm26.5,-66.416l13.5,32.5l-26.459,-0l13,-32.625l-0.041,0.125Zm-495.459,-72.459c0.361,0.176 0.664,0.451 0.875,0.792c0.209,0.546 0.321,1.125 0.334,1.708l-0,23.584c0.343,2.424 1.595,4.629 3.5,6.166c1.237,0.973 2.652,1.695 4.166,2.125c2.432,0.737 4.96,1.102 7.5,1.084c2.039,0.026 4.072,-0.226 6.042,-0.75c1.64,-0.442 3.181,-1.192 4.542,-2.209c1.243,-0.891 2.292,-2.025 3.083,-3.333c0.717,-1.29 1.183,-2.704 1.375,-4.167c0.221,-1.629 0.333,-3.272 0.333,-4.916l0,-13.875c0.027,-1.814 0.18,-3.624 0.459,-5.417c0.078,-0.31 0.253,-0.588 0.5,-0.792c0.985,-0.36 2.037,-0.502 3.083,-0.416l0,-2.125l-5.75,0.166l-6.458,0l-0,2c1.286,-0.048 2.57,0.135 3.791,0.542c0.278,0.125 0.5,0.348 0.625,0.625c0.305,1.367 0.43,2.767 0.375,4.167l0,13.75c0.175,2.59 -0.136,5.19 -0.916,7.666c-0.672,1.386 -1.767,2.524 -3.125,3.25c-1.817,0.921 -3.842,1.352 -5.875,1.25c-1.739,0.042 -3.469,-0.269 -5.084,-0.916c-1.24,-0.509 -2.31,-1.362 -3.083,-2.459c-0.762,-1.26 -1.193,-2.694 -1.25,-4.166l0,-15.042c-0.146,-2.417 -0.09,-4.842 0.167,-7.25c0.04,-0.369 0.238,-0.703 0.541,-0.917c1.154,-0.443 2.395,-0.614 3.625,-0.5l0,-2.166l-4.666,-0l-3.667,0.166l-8.333,-0.166l-0,2.166l3.458,0.375l-0.167,0Zm47.042,34.459l12.708,-0l0,-2.25l-0.541,-0c-0.837,-0.025 -1.671,-0.094 -2.5,-0.209c-0.312,-0.021 -0.613,-0.121 -0.875,-0.291c-0.172,-0.127 -0.302,-0.3 -0.375,-0.5c-0.224,-1.238 -0.336,-2.493 -0.334,-3.75l0,-21.667c10.446,12.75 18.513,22.304 24.209,28.667l4.541,0.666l0.334,-0.208c-0.25,-2.5 -0.375,-9.613 -0.375,-21.333l-0,-6.959c-0.086,-2.035 0.039,-4.074 0.375,-6.083c0.038,-0.172 0.143,-0.322 0.291,-0.417c1.25,-0.391 2.567,-0.55 3.875,-0.458l0,-2.208l-12.5,-0l0,2.208c1.413,-0.125 2.834,0.063 4.167,0.542c0.31,0.357 0.474,0.819 0.458,1.291c0.221,1.667 0.334,7.221 0.334,16.667l-0,6.125c-2.446,-2.529 -5.529,-6.012 -9.25,-10.458c-4.569,-5.356 -9.015,-10.816 -13.334,-16.375l-11.208,-0l0,2.208c1.129,0.042 2.258,0.15 3.375,0.333c0.311,0.059 0.6,0.204 0.833,0.417c0.195,0.256 0.324,0.557 0.375,0.875c0.067,0.833 0.067,1.667 0,2.5l0,21.75c-0.137,2.583 -0.262,4.208 -0.375,4.875c-0.033,0.354 -0.147,0.696 -0.333,1c-0.135,0.153 -0.307,0.268 -0.5,0.333c-1.187,0.171 -2.384,0.269 -3.583,0.292l-0,2.25l0.208,0.167Zm60.958,-36.834l-7.625,0l0,2.167c1.113,0 2.23,0.071 3.334,0.208c0.231,0.039 0.447,0.14 0.625,0.292c0.13,0.155 0.217,0.342 0.25,0.542c0.237,1.362 0.391,2.741 0.458,4.125l0,17.916c0,1.805 -0.083,3.763 -0.25,5.875l0,2.5c-0.04,0.161 -0.127,0.306 -0.25,0.417c-0.221,0.16 -0.479,0.261 -0.75,0.292l-3.167,-0l0,2.333l16.792,0l0,-2.167c-1.054,0.067 -2.112,0.067 -3.167,0c-0.329,-0.089 -0.63,-0.261 -0.875,-0.5c-0.185,-0.148 -0.317,-0.353 -0.375,-0.583c-0.229,-1.166 -0.313,-2.355 -0.25,-3.542l0,-25.041c-0.005,-0.563 0.065,-1.123 0.209,-1.667c0.069,-0.214 0.218,-0.393 0.416,-0.5c0.213,-0.146 0.455,-0.245 0.709,-0.292c1.068,-0.066 2.14,-0.066 3.208,0l0,-2.541l-9.167,-0l-0.125,0.166Zm42.25,37c1.084,-3 3.138,-8.137 6.167,-15.416l3.583,-8.334l1.875,-4.375c0.726,-2.125 1.735,-4.144 3,-6c0.961,-0.354 1.976,-0.538 3,-0.541l0,-2.5l-12.416,-0l-0,2.333l3.875,0c0.153,0.074 0.283,0.19 0.375,0.333c0.058,0.219 0.058,0.449 -0,0.667c0.019,0.208 0.019,0.417 -0,0.625c-0.167,0.721 -0.654,2.113 -1.459,4.167c-0.61,1.672 -1.235,3.338 -1.875,5l-5.875,14.541l-6.666,-16l-0,-0.5l-1.292,-2.541c-0.771,-1.61 -1.358,-3.301 -1.75,-5.042c-0.021,-0.241 0.054,-0.481 0.208,-0.667c0.221,-0.201 0.497,-0.331 0.792,-0.375c1.059,-0.188 2.133,-0.272 3.208,-0.25l0,-2.291l-17.208,-0l0,2.333c1.117,-0.063 2.235,0.093 3.292,0.458c0.679,0.655 1.204,1.455 1.541,2.334c0.667,1.333 2.471,5.5 5.417,12.5l3.75,8.958l4.167,10.542l4.166,-0l0.125,0.041Zm38.125,-0.5l12.834,0c1.596,0.084 3.196,0.084 4.791,0l0.334,-0.333c0.042,-2.883 0.236,-5.762 0.583,-8.625l-1.875,0c-0.192,1.623 -0.527,3.227 -1,4.792c-0.062,0.183 -0.179,0.342 -0.333,0.458c-0.947,0.354 -1.948,0.538 -2.959,0.542l-10.291,-0l-0,-14.125c1.388,-0.076 2.778,-0.076 4.166,-0c1.575,-0.022 3.149,0.076 4.709,0.291c0.458,0.042 0.866,0.292 1.125,0.667c0.396,1.221 0.537,2.512 0.416,3.792l2.125,-0l0,-11.584l-2.125,0c0.013,1.123 -0.113,2.242 -0.375,3.334c-0.06,0.217 -0.192,0.408 -0.375,0.541c-0.551,0.097 -1.115,0.097 -1.666,0l-7.917,0l0,-5.5c-0.019,-2.546 0.106,-5.092 0.375,-7.625l4.792,0c1.712,0.002 3.423,0.099 5.125,0.292c0.727,0.014 1.446,0.155 2.125,0.417c0.169,0.137 0.287,0.328 0.333,0.541c0.183,1.271 0.267,2.55 0.25,3.834l2.042,-0l0.25,-3.834l0.5,-3.833l-0,-0.333l-1.292,-0.375l-26.917,-0l0,2.25c1.292,-0.013 2.584,0.141 3.834,0.458c0.185,0.083 0.333,0.232 0.416,0.417c0.292,1.2 0.417,2.433 0.375,3.666l0,17.042c0,1.388 -0.07,3.596 -0.208,6.625c0,1.667 0,2.875 -0.25,3.583c-0.8,0.613 -1.667,1.125 -2.583,1.542l-0,1.417l8.666,-0.334Zm34.792,-34.083c0.17,0.109 0.302,0.27 0.375,0.458c0.283,1.371 0.396,2.771 0.333,4.167l0,15.292l-0.208,7.708c-0.015,1.046 -0.099,2.09 -0.25,3.125c-0.011,0.263 -0.082,0.519 -0.208,0.75c-0.122,0.13 -0.283,0.218 -0.459,0.25c-1.17,0.2 -2.355,0.298 -3.541,0.292l-0,2.333l16.75,0l-0,-2.292c-1.027,0.06 -2.057,0.06 -3.084,0c-0.267,-0.046 -0.521,-0.145 -0.75,-0.291c-0.139,-0.098 -0.253,-0.226 -0.333,-0.375c-0.194,-0.621 -0.292,-1.267 -0.292,-1.917l0,-28.708c0.826,-0.14 1.663,-0.209 2.5,-0.209c1.402,-0.08 2.809,0.06 4.167,0.417c1.167,0.442 2.167,1.225 2.875,2.25c0.833,1.225 1.246,2.688 1.167,4.167c-0.014,1.462 -0.402,2.896 -1.125,4.166c-0.595,1.166 -1.543,2.114 -2.709,2.709c-1.527,0.579 -3.164,0.807 -4.791,0.666l-0.292,0.875c0.625,0.496 1.175,1.084 1.625,1.75c1.138,1.53 2.529,3.638 4.167,6.334l5.666,9.333c0.271,0.471 0.48,0.975 0.625,1.5l10.084,0l-0,-2.667c-0.563,0.022 -1.126,-0.049 -1.667,-0.208c-0.334,-0.16 -0.632,-0.387 -0.875,-0.667c-0.304,-0.304 -1.112,-1.333 -2.417,-3.083l-1.791,-2.625l-4.167,-6.125l-0.292,-0.5l-0.833,-1.458c-0.542,-0.834 -1.083,-1.625 -1.5,-2.417c2.383,-0.781 4.494,-2.227 6.083,-4.167c1.305,-1.666 2.009,-3.721 2,-5.833c0.05,-1.649 -0.465,-3.266 -1.458,-4.583c-0.869,-1.177 -2.098,-2.04 -3.5,-2.459c-2.035,-0.464 -4.122,-0.66 -6.208,-0.583l-19.375,-0l-0,2.208c1.308,0.009 2.612,0.192 3.875,0.542l-0.167,-0.125Zm68.292,2.625c0.117,-1.134 0.298,-2.261 0.541,-3.375l-0.208,-0.625c-1.456,-0.689 -2.997,-1.179 -4.583,-1.458c-1.786,-0.335 -3.6,-0.503 -5.417,-0.5c-1.766,-0.006 -3.528,0.19 -5.25,0.583c-1.635,0.367 -3.188,1.031 -4.583,1.958c-1.418,0.981 -2.554,2.318 -3.292,3.875c-0.838,1.697 -1.266,3.567 -1.25,5.459c-0.005,1.351 0.235,2.692 0.708,3.958c0.448,1.187 1.161,2.255 2.084,3.125c1.05,0.942 2.308,1.625 3.666,2c1,0.304 3.096,0.792 6.292,1.458c1.61,0.312 3.177,0.816 4.667,1.5c0.833,0.425 1.516,1.092 1.958,1.917c0.442,0.892 0.654,1.879 0.625,2.875c0.023,1.237 -0.279,2.458 -0.875,3.542c-0.663,1.111 -1.674,1.975 -2.875,2.458c-1.42,0.611 -2.955,0.909 -4.5,0.875c-1.852,0.019 -3.682,-0.41 -5.333,-1.25c-1.395,-0.623 -2.591,-1.618 -3.459,-2.875c-0.211,-1.574 -0.308,-3.162 -0.291,-4.75l-2.125,0c0.088,3.078 -0.192,6.155 -0.834,9.167c1.781,0.893 3.653,1.592 5.584,2.083c1.899,0.433 3.843,0.643 5.791,0.625c2.598,0.07 5.186,-0.354 7.625,-1.25c1.417,-0.575 2.721,-1.375 3.875,-2.375c1.194,-0.99 2.197,-2.19 2.959,-3.542c0.971,-1.833 1.458,-3.883 1.416,-5.958c0.017,-1.172 -0.152,-2.339 -0.5,-3.458c-0.277,-0.93 -0.714,-1.804 -1.291,-2.584c-0.573,-0.725 -1.281,-1.333 -2.084,-1.791c-1.086,-0.601 -2.25,-1.049 -3.458,-1.334l-3.542,-0.666l-4.166,-0.792c-1.064,-0.245 -2.087,-0.638 -3.042,-1.167c-0.679,-0.407 -1.229,-1 -1.583,-1.708c-0.408,-0.888 -0.607,-1.857 -0.584,-2.833c0.023,-1.605 0.738,-3.125 1.959,-4.167c1.556,-1.304 3.556,-1.961 5.583,-1.833c1.562,-0.018 3.109,0.294 4.542,0.916c1.108,0.417 2.083,1.125 2.833,2.042c0.167,1.383 0.25,2.775 0.25,4.167l2.208,-0c0,-1.792 0,-3.25 0.25,-4.167l-0.291,-0.125Zm23.5,-5.125l-7.625,0l-0,2.25c1.114,0.003 2.227,0.072 3.333,0.208c0.231,0.039 0.447,0.14 0.625,0.292c0.131,0.155 0.217,0.342 0.25,0.542c0.198,1.38 0.31,2.772 0.333,4.166l0,17.875c0,1.805 -0.07,3.763 -0.208,5.875l0,2.5c-0.04,0.161 -0.127,0.306 -0.25,0.417c-0.221,0.16 -0.479,0.261 -0.75,0.292l-3.167,-0l0,2.333l16.792,0l0,-2.167c-1.054,0.067 -2.112,0.067 -3.167,0c-0.285,-0.052 -0.555,-0.166 -0.791,-0.333c-0.188,-0.146 -0.321,-0.352 -0.375,-0.583c-0.23,-1.166 -0.314,-2.356 -0.25,-3.542l-0,-25.208c0.035,-0.568 0.148,-1.129 0.333,-1.667c0.056,-0.164 0.157,-0.308 0.292,-0.417c0.213,-0.145 0.454,-0.244 0.708,-0.291c1.055,-0.065 2.112,-0.065 3.167,-0l-0,-2.625l-9.167,-0l-0.083,0.083Zm36.833,36.583c2.363,0 5.25,0.071 8.667,0.209l-0,-2.042c-1.28,0.042 -2.559,-0.112 -3.792,-0.458c-0.392,-0.208 -0.68,-0.571 -0.792,-1c-0.278,-2.281 -0.376,-4.58 -0.291,-6.875l-0,-23.084l3.791,0c2.03,0 3.763,0.071 5.209,0.209c0.274,-0.066 0.559,-0.066 0.833,-0c0.199,0.343 0.313,0.729 0.333,1.125c0.196,1.296 0.309,2.604 0.334,3.916l2.166,0l0,-5.791c0.048,-0.949 0.145,-1.895 0.292,-2.834l-0.25,-0.25l-33.417,0l-0.25,0.25c0,0.888 0.084,1.721 0.25,2.5c0.167,0.78 0.167,2.821 0,6.125l2.167,0c0.029,-1.395 0.167,-2.791 0.417,-4.166c0.022,-0.331 0.137,-0.649 0.333,-0.917c0.313,-0.144 0.655,-0.215 1,-0.208l8.833,-0l0,23.083c0.085,2.282 -0.012,4.567 -0.291,6.833c-0.107,0.443 -0.394,0.821 -0.792,1.042c-1.237,0.325 -2.514,0.465 -3.792,0.417l0,2.166c3.25,-0.137 6.138,-0.208 8.667,-0.208l0.375,-0.042Zm43.333,-26.583c-1.143,-2.27 -2.423,-4.468 -3.833,-6.583c-0.591,-0.941 -1.275,-1.821 -2.042,-2.625c-0.706,-0.661 -1.489,-1.235 -2.333,-1.709l-2.917,0.709l-5.625,1.125l0,2.333c0.775,-0.103 1.559,-0.103 2.334,0c0.7,0.483 1.329,1.058 1.875,1.708c1.547,1.797 2.94,3.721 4.166,5.75c1.888,2.946 3.667,5.93 5.334,8.959c0.481,0.766 0.82,1.613 1,2.5l-0,10.166c0.013,0.543 -0.086,1.082 -0.292,1.584c-0.182,0.214 -0.432,0.361 -0.708,0.416c-1.175,0.157 -2.357,0.241 -3.542,0.25l0,2.334l17.167,-0l-0,-2.334c-1.171,0.025 -2.341,-0.044 -3.5,-0.208c-0.306,-0.064 -0.584,-0.225 -0.792,-0.458c-0.254,-0.58 -0.395,-1.202 -0.417,-1.834c-0.083,-1.625 -0.083,-3.25 0,-4.875l0,-4.541c-0.062,-0.666 -0.062,-1.335 0,-2c0.167,-0.696 0.417,-1.367 0.75,-2c0.584,-1.113 2.113,-3.613 4.584,-7.5c2.471,-3.888 4.821,-7.25 7.041,-10.084l0,-1.166l-4.166,-0c-0.25,0.5 -0.875,1.625 -1.834,3.291l-5,8.834l-3.333,5.375c-0.417,-0.917 -1.654,-3.363 -3.708,-7.334l-0.209,-0.083Z" style="fill-rule:nonzero;"/><path d="M150.875,126.583l0,-36.125l33.292,0l-0,-23.833l-33.292,0l0,-33.75l36.542,0l-0,13.083l24.125,0l-0,-36.708l-96.584,0l0,23.625l9.084,0l-0,93.708l-9.042,0l0,23.834l44.583,-0l0,-23.834l-8.708,0Zm-48.458,-29.541l-0,-64.167l8.916,0l0,-23.625l-44.625,0l0,23.625l8.709,0l-0,56.208c-0,23.584 -2.709,34.875 -19.625,34.875c-16.917,0 -19.667,-11.458 -19.667,-34.875l0,-56.208l8.625,0l0,-23.625l-44.75,0l0,23.625l8.875,0l0,64.167c0,14.041 0,25.5 6.625,35.833c7.375,11.667 20.833,19.125 40.25,19.125c34.417,0 46.667,-17.958 46.667,-54.958Z"/></g></g></svg>