<?xml version="1.0" encoding="UTF-8" standalone="no"?><!DOCTYPE svg PUBLIC "-//W3C//DTD SVG 1.1//EN" "http://www.w3.org/Graphics/SVG/1.1/DTD/svg11.dtd"><svg width="100%" height="100%" viewBox="0 0 1663 563" version="1.1" xmlns="http://www.w3.org/2000/svg" xmlns:xlink="http://www.w3.org/1999/xlink" xml:space="preserve" xmlns:serif="http://www.serif.com/" style="fill-rule:evenodd;clip-rule:evenodd;stroke-linejoin:round;stroke-miterlimit:2;"><g><path d="M492.183,288.5l15.817,-25.542c36.496,-57.179 109.488,-125.308 200.729,-153.287c-47.446,38.929 -88.808,90.025 -118.004,153.283l-10.95,25.55c-13.383,34.063 -25.546,77.859 -30.417,122.871l26.767,0c4.867,-42.583 15.817,-87.592 31.629,-122.875l12.167,-25.542c32.846,-65.695 85.158,-126.52 154.5,-166.666c-26.763,43.791 -55.959,116.787 -68.125,166.666l-6.083,25.542c-6.084,24.333 -14.601,79.079 -17.03,122.875l26.763,0c3.65,-43.796 10.95,-94.892 18.25,-122.875l6.083,-25.542c15.813,-57.179 45.008,-125.308 74.208,-169.1l0,318.734l26.763,-0l0,-318.734c29.196,43.792 58.392,111.917 74.208,169.096l6.084,25.55c7.3,27.979 14.6,80.292 18.25,122.871l26.762,0c-3.65,-43.796 -10.95,-98.542 -18.25,-122.875l-6.083,-25.542c-12.167,-49.879 -41.363,-122.875 -68.125,-166.666c69.342,40.146 120.437,100.971 154.5,166.666l12.166,25.542c15.817,35.283 26.763,80.292 31.63,122.875l27.983,0c-0,-1.217 -1.217,-2.433 -1.217,-3.65c-4.866,-43.792 -17.033,-86.375 -30.416,-119.221l-10.946,-25.55c-29.2,-62.042 -69.346,-114.354 -118.009,-153.283c91.242,27.979 164.238,94.892 200.734,153.283l15.812,25.55c20.684,37.713 34.063,80.292 41.363,122.871l26.766,0c-26.766,-195.862 -193.433,-345.5 -396.595,-345.5c-203.163,0 -369.83,150.854 -396.592,345.5l26.762,0c4.867,-42.583 19.467,-85.158 40.146,-122.875Z" style="fill:none;"/><path d="M820.65,39.113c217.762,-0 396.596,163.016 423.358,372.262l37.713,0c1.216,-2.433 1.216,-6.083 1.216,-8.517l-6.083,-36.495c-1.216,-8.517 -9.733,-14.6 -17.029,-13.384l-1.217,0c-1.216,-3.65 -1.216,-7.296 -2.433,-9.729l1.217,0c7.3,-2.433 10.946,-12.167 8.516,-19.467l-12.166,-35.279c-2.434,-8.516 -10.95,-12.166 -19.467,-9.733l-1.217,-0c-1.216,-3.65 -2.433,-6.083 -4.866,-9.733l1.216,-0c7.3,-3.65 9.734,-13.38 4.867,-20.68l-18.25,-31.629c-4.862,-7.3 -13.379,-10.95 -20.679,-6.083c-2.433,-2.433 -3.65,-6.083 -6.083,-8.517c6.083,-4.866 7.3,-14.6 1.216,-21.9l-24.333,-27.979c-6.079,-6.083 -14.596,-7.3 -21.896,-2.433l-7.296,-7.3c4.863,-6.084 3.65,-15.813 -2.433,-21.896l-27.983,-24.333c-6.084,-6.084 -15.813,-4.863 -21.896,1.216c-2.434,-2.429 -6.084,-3.646 -8.517,-6.083c3.65,-7.296 1.217,-15.813 -6.083,-20.679l-31.629,-18.25c-7.3,-4.863 -17.034,-2.429 -20.684,4.866c-3.646,-1.216 -6.083,-2.433 -9.729,-4.862c2.433,-7.3 -2.433,-15.817 -9.733,-18.25l-35.279,-12.167c-8.517,-2.433 -17.034,1.217 -19.467,8.517c-3.65,-1.217 -7.3,-2.433 -9.733,-2.433c1.216,-7.3 -4.863,-14.6 -13.38,-17.03l-36.5,-6.083c-8.512,-1.217 -15.812,3.65 -18.245,10.946c-3.65,-0 -7.3,-1.217 -10.95,-1.217c-0,-7.296 -7.296,-14.596 -15.813,-14.596l-37.712,0c-8.517,0 -15.817,6.084 -15.817,14.596c-3.65,0 -7.3,0 -10.95,1.217c-1.217,-7.296 -9.729,-12.167 -18.25,-10.946l-36.492,6.083c-8.516,1.217 -14.6,8.513 -13.383,17.03c-3.65,1.216 -7.3,1.216 -9.733,2.433c-2.434,-7.3 -12.167,-10.95 -19.463,-8.517l-35.283,12.167c-8.513,2.433 -12.167,10.95 -9.729,18.25c-3.65,1.217 -6.084,2.429 -9.734,4.862c-3.65,-7.295 -13.383,-8.512 -20.683,-4.862l-31.625,18.25c-7.304,4.862 -9.738,13.375 -6.083,20.679c-2.438,2.433 -6.084,3.65 -8.517,6.083c-4.867,-6.083 -14.6,-6.083 -21.9,-1.22l-27.979,24.333c-6.084,6.083 -7.3,14.6 -2.434,21.896l-7.3,7.3c-6.083,-4.867 -15.816,-3.65 -21.895,2.433l-24.334,27.979c-6.083,6.084 -4.866,15.817 1.217,21.9c-2.433,2.434 -3.65,6.084 -6.083,8.517c-7.3,-3.65 -15.813,-1.217 -20.68,6.083l-18.25,31.625c-4.866,7.304 -2.433,17.034 4.867,20.684l1.217,-0c-1.217,3.65 -2.434,6.083 -4.867,9.733l-1.217,-0c-7.3,-2.433 -15.812,1.217 -19.462,9.733l-12.167,35.279c-2.433,8.517 1.217,17.034 8.517,19.467l1.217,0c-1.217,3.646 -1.217,6.083 -2.434,9.729l-1.216,0c-8.517,-1.216 -15.817,4.867 -17.034,13.384l-6.083,36.5c-0,2.429 -0,6.079 1.217,8.512l37.712,0c27.983,-210.462 208.029,-372.263 424.575,-372.263Z" style="fill:#fff;fill-rule:nonzero;stroke:#fff;stroke-width:4.17px;"/><path d="M820.65,39.113c-217.762,-0 -396.592,163.016 -423.358,372.262l26.766,0c26.763,-195.862 193.43,-345.5 396.592,-345.5c203.167,0 369.833,150.854 396.596,345.5l26.762,0c-26.762,-210.462 -205.596,-372.263 -423.358,-372.263Z" style="fill:#fff;fill-rule:nonzero;stroke:#fff;stroke-width:4.17px;"/><path d="M734.275,261.742l-6.083,25.541c-7.296,27.984 -14.596,80.296 -18.25,122.875l98.541,0l0,-318.733c-29.195,45.013 -58.391,114.354 -74.208,170.317Zm173.967,-0c-15.817,-57.18 -45.013,-125.305 -74.209,-169.1l0,318.733l98.542,0c-3.65,-43.796 -10.95,-94.892 -18.25,-122.875l-6.083,-26.758Zm113.137,-0c-32.846,-65.696 -85.158,-126.521 -154.5,-166.667c26.763,43.792 55.959,116.787 68.125,166.667l6.084,25.541c7.3,24.334 14.6,79.08 18.25,122.875l105.837,0c-4.867,-42.579 -15.813,-87.591 -31.625,-122.875l-12.167,-25.541l-0.004,-0Z" style="fill:#fff;fill-rule:nonzero;stroke:#fff;stroke-width:4.17px;"/><path d="M1134.52,261.742c-36.5,-57.18 -109.492,-125.305 -200.733,-153.288c47.445,38.929 88.808,90.025 118.008,153.288l10.946,25.541c13.383,32.85 24.333,75.429 30.416,119.225c0,1.217 1.217,2.434 1.217,3.65l97.321,0c-6.083,-42.579 -19.463,-85.158 -41.363,-122.875l-15.812,-25.541Zm-428.225,-0c12.167,-49.88 42.579,-122.875 68.125,-166.667c-69.342,40.146 -120.438,100.971 -154.5,166.667l-12.167,25.541c-15.812,35.284 -26.762,80.296 -31.625,122.875l105.834,0c3.65,-43.796 10.95,-98.541 17.033,-122.875l7.3,-25.541Z" style="fill:#fff;fill-rule:nonzero;stroke:#fff;stroke-width:4.17px;"/><path d="M590.725,261.742c29.196,-62.046 69.342,-114.359 118,-153.288c-91.237,27.983 -164.229,94.892 -200.725,153.288l-15.817,25.541c-20.679,37.717 -34.062,80.296 -40.146,122.875l98.542,0c4.867,-46.229 17.029,-90.025 30.413,-122.875l9.733,-25.541Z" style="fill:#fff;fill-rule:nonzero;stroke:#fff;stroke-width:4.17px;"/><path d="M5.566,558.577l-4.866,-92.458l20.681,0l1.216,70.56l37.713,-70.56l23.115,0l1.216,70.56l38.93,-70.56l19.464,0l-53.528,92.458l-24.331,-0l0,-68.127l-36.496,68.127l-23.114,-0Z" style="fill:#fff;fill-rule:nonzero;stroke:#fff;stroke-width:4.17px;"/><path d="M226.975,512.35c-7.296,27.979 -24.329,47.442 -59.608,47.442c-31.629,-0 -41.363,-15.813 -32.846,-48.659c9.729,-36.5 32.846,-47.445 59.608,-47.445c24.334,1.216 43.796,9.729 32.846,48.662Zm-55.958,31.625c18.25,0 29.196,-13.375 34.062,-31.625c3.65,-13.383 6.083,-31.633 -15.817,-31.633c-17.029,-0 -27.979,12.166 -34.062,31.633c-4.867,17.029 -3.65,31.625 15.817,31.625Zm55.958,14.6l25.55,-92.458l47.446,-0c21.896,-0 30.412,7.3 24.333,27.983c-3.654,13.383 -12.167,23.112 -25.55,25.546l12.167,38.929l-21.9,-0l-10.95,-36.496l-23.113,0l-9.733,36.5l-18.25,0l0,-0.004Zm40.146,-75.425l-6.084,23.117l23.117,-0c13.383,-0 18.25,-2.434 20.683,-12.167c1.217,-6.083 3.646,-10.95 -14.6,-10.95l-23.116,-0Zm116.791,75.425l-24.333,-0c-23.112,-0 -37.708,-4.863 -27.979,-37.708l15.817,-54.75l19.462,-0l-14.6,51.095c-4.862,18.25 -7.296,26.767 13.384,26.767l23.116,0l-4.867,14.596Zm9.73,-0l25.55,-92.458l42.579,-0c30.416,-0 38.929,15.816 30.416,47.445c-6.083,20.684 -18.25,43.796 -54.75,43.796l-43.791,0l-0,1.217l-0.004,-0Zm41.362,-76.642l-17.029,59.613l21.896,-0c15.816,-0 23.116,-3.65 30.416,-30.417c6.084,-20.679 4.863,-30.412 -14.6,-30.412l-20.683,-0l0,1.216Zm107.058,76.642l25.546,-92.458l47.446,-0c15.817,-0 34.063,1.22 26.763,25.55c-2.43,8.516 -8.513,15.816 -19.463,20.683c6.083,3.646 10.95,8.512 8.517,20.679c-6.084,20.683 -20.684,25.546 -37.713,25.546l-51.096,-0Zm41.363,-75.425l-6.083,20.683l27.979,0c7.3,0 13.383,-2.433 15.816,-10.95c2.434,-7.3 -1.216,-10.95 -9.733,-10.95l-27.979,1.217Zm-17.033,58.396l27.983,-0c6.083,-0 13.379,-1.217 15.812,-10.95c2.434,-7.3 -1.216,-10.95 -9.733,-10.95l-27.979,-0l-6.083,21.9Z" style="fill:#fff;fill-rule:nonzero;stroke:#fff;stroke-width:4.17px;"/><path d="M685.614,466.119l-25.547,92.458l-20.681,-0l25.547,-92.458l20.681,0Z" style="fill:#fff;fill-rule:nonzero;stroke:#fff;stroke-width:4.17px;"/><path d="M769.554,481.933l-31.625,0c-13.383,0 -24.333,7.3 -31.633,34.063c-7.3,25.55 2.433,26.767 15.817,26.767l31.625,-0l-4.863,15.812l-32.846,-0c-29.2,-0 -38.929,-15.813 -30.416,-43.792c7.3,-27.983 23.116,-47.446 57.179,-47.446l31.629,0l-4.867,14.596Z" style="fill:#fff;fill-rule:nonzero;stroke:#fff;stroke-width:4.17px;"/><path d="M793.887,517.214l-19.465,-51.095l21.898,0l13.382,35.28l32.847,-35.28l21.897,0l-49.878,51.095l-10.949,40.146l-19.464,0l9.732,-40.146Z" style="fill:#fff;fill-rule:nonzero;stroke:#fff;stroke-width:4.17px;"/><path d="M933.792,481.933l-31.634,0c-13.379,0 -24.333,7.3 -31.629,34.063c-7.3,25.55 2.434,26.767 14.6,26.767l31.625,-0l-4.862,15.812l-32.846,-0c-29.196,-0 -38.929,-15.813 -30.417,-43.792c7.3,-27.983 23.117,-47.446 57.179,-47.446l31.63,0l-3.65,14.596l0.004,0Zm53.525,76.642l-24.334,-0c-23.112,-0 -37.708,-4.863 -27.979,-37.708l15.817,-54.75l19.467,-0l-14.6,51.095c-4.867,18.25 -7.3,26.767 13.383,26.767l23.112,0l-4.866,14.596Zm100.975,-76.642l-31.63,0c-13.383,0 -23.116,7.3 -27.983,21.9l53.529,0l-4.866,15.813l-53.529,-0c-4.867,17.033 1.216,23.116 15.816,23.116l31.629,0l-4.866,15.813l-32.846,-0c-29.196,-0 -38.929,-15.813 -30.417,-43.792c7.304,-27.983 23.117,-47.446 57.179,-47.446l31.634,0l-3.65,14.596Zm46.229,76.642l25.546,-92.458l47.446,-0c21.895,-0 30.416,7.3 24.333,27.983c-3.654,13.383 -12.167,23.112 -25.55,25.546l12.167,38.929l-21.9,-0l-10.95,-36.496l-21.896,0l-9.734,36.5l-19.462,0l-0,-0.004Zm40.146,-75.425l-6.084,23.117l23.113,-0c13.383,-0 18.25,-2.434 20.683,-12.167c1.217,-6.083 3.65,-10.95 -14.6,-10.95l-23.112,-0Zm145.983,-1.217l-31.629,0c-13.383,0 -23.113,7.3 -27.979,21.9l53.525,0l-4.867,15.813l-53.525,-0c-4.867,17.033 1.217,23.116 15.813,23.116l31.633,0l-4.867,15.813l-32.846,-0c-29.2,-0 -38.933,-15.813 -30.416,-43.792c7.3,-27.983 23.116,-47.446 57.179,-47.446l31.629,0l-3.65,14.596Zm57.179,76.642l-24.333,-0c-23.113,-0 -37.708,-4.863 -27.979,-37.708l15.816,-54.75l19.463,-0l-14.596,51.095c-4.867,18.25 -7.3,26.767 13.379,26.767l23.117,0l-4.867,14.596Z" style="fill:#fff;fill-rule:nonzero;stroke:#fff;stroke-width:4.17px;"/><path d="M1433.79,466.119l-25.548,92.458l-20.681,-0l25.547,-92.458l20.682,0Z" style="fill:#fff;fill-rule:nonzero;stroke:#fff;stroke-width:4.17px;"/><path d="M1518.95,481.933l-31.625,0c-13.383,0 -23.117,7.3 -27.984,21.9l53.53,0l-4.867,15.813l-53.529,-0c-4.867,17.033 1.216,23.117 15.816,23.117l31.625,-0l-4.862,15.812l-32.846,0c-29.2,0 -38.929,-15.812 -30.417,-43.792c7.301,-27.983 23.117,-47.445 57.18,-47.445l31.629,-0l-3.65,14.595Zm-4.863,76.642l12.167,-42.579c12.163,-45.013 30.413,-49.875 59.608,-49.875l29.196,-0l-4.866,15.812l-31.63,0c-15.816,0 -24.333,4.867 -30.416,23.117l54.75,0l-4.867,15.813l-54.75,-0l-10.946,37.712l-18.25,-0l0.004,-0Zm128.95,-102.188c9.734,0 18.25,8.517 18.25,18.25c0,9.73 -8.516,18.246 -18.25,18.246c-9.729,0 -18.25,-8.516 -18.25,-18.25c0,-10.945 7.305,-18.25 18.25,-18.25l0,0.004Zm0,2.434c-8.512,-0 -14.595,7.3 -14.595,15.812c-0,8.517 6.083,15.817 14.595,15.817c8.517,-0 14.6,-7.3 14.6,-15.817c0,-8.512 -7.3,-15.812 -14.6,-15.812Zm-3.645,25.546l-3.65,-0l-0,-20.68l6.083,0c3.646,0 4.862,1.217 6.083,1.217c1.213,1.217 2.429,2.433 2.429,3.65c0,2.429 -1.216,4.863 -3.65,4.863c1.217,-0 2.434,2.433 3.65,4.866c0,3.65 1.217,4.867 1.217,4.867l-3.65,0c0,-1.217 -1.217,-2.433 -1.217,-4.867c0,-2.433 -1.216,-3.65 -4.866,-3.65l-2.429,0l-0,9.734Zm-0,-10.95l2.429,-0c2.433,-0 4.866,-1.217 4.866,-3.646c0,-1.217 -1.216,-3.65 -4.866,-3.65l-2.429,-0l-0,7.296Z" style="fill:#fff;fill-rule:nonzero;stroke:#fff;stroke-width:4.17px;"/></g></svg>